<svg width="141" height="32" viewBox="0 0 141 32" fill="none" xmlns="http://www.w3.org/2000/svg">
<path d="M15.2656 26C16.0206 26 16.7763 26 17.5312 26C17.5312 26.7812 17.5312 27.5625 17.5312 28.3438C17.5312 29.125 17.5312 29.9062 17.5312 30.6875C16.7763 30.6875 16.0206 30.6875 15.2656 30.6875C14.5106 30.6875 13.755 30.6875 13 30.6875C13 29.9062 13 29.125 13 28.3438C13 27.5625 13 26.7812 13 26C13.755 26 14.5106 26 15.2656 26Z" fill="black"/>
<path d="M12.1616 0.965942C20.2403 0.965942 24.6316 1.02313 25.2475 1.13563C25.7572 1.22907 26.5097 1.48657 26.9184 1.70813C27.9184 2.24969 29.145 3.57781 29.6597 4.67625C30.0788 5.57094 30.0813 5.59563 30.1272 9.65188C30.1709 13.5303 30.1569 13.7731 29.8297 14.6469C29.3922 15.8166 28.4431 16.7709 26.2212 18.2759C25.3016 18.8991 24.5112 19.4703 24.465 19.545C24.37 19.6988 24.8116 20.0519 26.7216 21.3503C28.4728 22.5409 29.1472 23.2066 29.655 24.2466C30.06 25.0756 30.0772 25.2172 30.1313 28.1925C30.15 29.2209 30.1688 30.25 30.1875 31.2784C29.4534 31.2784 28.7197 31.2784 27.9856 31.2784C27.2519 31.2784 26.5181 31.2784 25.7841 31.2784C25.7841 30.7391 25.7841 30.2 25.7841 29.6609C25.7841 28.7709 25.7406 27.6253 25.6872 27.1144C25.6547 26.8044 25.6222 26.495 25.5897 26.1853C23.8481 24.9488 22.1062 23.7119 20.3647 22.475C18.6228 21.2384 16.8809 20.0016 15.1394 18.765C14.4478 19.2491 13.7559 19.7331 13.0641 20.2169C11.9228 21.0156 9.53688 22.6884 7.76188 23.9347C6.68625 24.6897 5.61063 25.4453 4.53469 26.2003C4.53469 27.0481 4.53469 27.8956 4.53469 28.7438C4.53438 29.5913 4.53406 30.4394 4.53406 31.2869C3.79188 31.2725 3.04969 31.2581 2.3075 31.2438C1.56531 31.2291 0.823126 31.2147 0.0809383 31.2003C0.0675008 28.375 0.0537493 25.5491 0.0403118 22.7238C0.0268743 19.8984 0.0134375 17.0725 0 14.2472C0.755625 14.2472 1.51125 14.2472 2.26687 14.2472C3.0225 14.2472 3.77844 14.2472 4.53406 14.2472C4.53406 15.2891 4.53406 16.3303 4.53406 17.3722C4.53406 19.0909 4.57312 20.4972 4.62125 20.4972C4.66937 20.4972 6.515 19.2331 8.72281 17.6881C10.9306 16.1431 12.9834 14.7591 13.2841 14.6122C14.0053 14.26 15.4637 14.1606 16.3344 14.4044C16.7184 14.5119 17.7447 15.0831 18.6153 15.6734C19.4856 16.2641 20.2178 16.7472 20.2425 16.7472C20.3197 16.7472 25.0666 13.4438 25.3544 13.19C25.5978 12.9753 25.6278 12.6006 25.6278 9.75782C25.6278 8.69438 25.6278 7.63063 25.6278 6.56688C25.4756 6.41469 25.3234 6.26251 25.1709 6.11032C25.0187 5.95782 24.8666 5.80563 24.7144 5.65344C20.5956 5.65344 16.4772 5.65344 12.3584 5.65344C8.24 5.65344 4.12156 5.65344 0.00281334 5.65344C0.00281334 4.87219 0.00281334 4.09094 0.00281334 3.30969C0.00281334 2.52844 0.00281334 1.74719 0.00281334 0.965942C4.05563 0.965942 8.10843 0.965942 12.1616 0.965942ZM29.8631 5.88094C29.6325 4.96719 28.6928 3.44126 27.9491 2.77251C27.0953 2.00469 26.1459 1.51626 25.2372 1.3772C24.8934 1.32438 19.1278 1.26344 12.4247 1.24094C8.36219 1.22751 4.29969 1.21375 0.237188 1.20032C0.237188 1.90344 0.237188 2.60657 0.237188 3.30969C0.237188 4.01282 0.237188 4.71594 0.237188 5.41907C4.33781 5.41907 8.43813 5.41907 12.5384 5.41907C16.6391 5.41907 20.7391 5.41907 24.8397 5.41907C25.0103 5.58938 25.1803 5.76001 25.3509 5.93001C25.5213 6.10032 25.6916 6.27094 25.8622 6.44125C25.8678 7.62032 25.8737 8.79938 25.8794 9.97876C25.8947 13.17 25.9234 13.5359 26.1728 13.7184C26.3575 13.8534 26.4187 14.0369 26.3575 14.2713C26.2181 14.8031 26.78 15.6038 27.3516 15.6875C27.6291 15.7281 27.8919 15.6716 27.9934 15.5488C28.1931 15.3084 28.5966 15.27 28.5966 15.4919C28.5966 15.5747 28.4606 15.715 28.2947 15.8041C28.1284 15.8931 27.9481 16.1063 27.8934 16.2784C27.8388 16.4503 27.7047 16.5909 27.5947 16.5909C27.4847 16.5909 27.2678 16.7316 27.1122 16.9034C26.8484 17.195 26.8478 17.2159 27.0994 17.2159C27.5531 17.2159 29.1584 15.5513 29.5566 14.6678C29.9034 13.8972 29.9234 13.6678 29.9525 10.1066C29.9691 8.04407 29.9291 6.1425 29.8631 5.88094ZM4.23594 28.6066C4.12687 27.3922 3.90344 27.0597 3.19625 27.0597C2.91094 27.0597 2.63937 26.9978 2.59281 26.9222C2.54594 26.8469 2.18125 26.8219 1.78187 26.8669C1.20937 26.9313 1.02531 26.8938 0.910311 26.6884C0.564061 26.0691 0.422814 26.9309 0.401564 29.7941C0.398751 30.1584 0.396251 30.5234 0.393438 30.8878C0.991563 30.9028 1.59 30.9175 2.18843 30.9322C4.53343 30.9906 4.45781 31.0763 4.23594 28.6066ZM2.89875 24.2516C2.56625 23.9756 2.15781 24.1741 2.21844 24.5822C2.26625 24.9044 2.72875 25.3303 2.86656 25.1794C3.09031 24.9341 3.10781 24.4253 2.89875 24.2516ZM5.67657 23.5831C5.62219 23.3756 5.44094 23.3097 4.92594 23.3097C4.04594 23.3097 3.75281 23.1884 3.75281 22.8244C3.75281 22.6616 3.64531 22.5284 3.51375 22.5284C3.06031 22.5284 3.09532 22.9894 3.59719 23.6228C3.99001 24.1188 4.05875 24.3013 3.9175 24.4713C3.65875 24.7834 3.97687 24.93 4.41375 24.7C4.60875 24.5972 4.81813 24.4359 4.87906 24.3425C4.93969 24.2488 5.08031 24.1644 5.19156 24.155C5.83875 24.1019 5.81844 24.1263 5.67657 23.5831ZM29.7563 25.8797C29.6475 25.5631 29.5959 25.2053 29.6422 25.0847C29.775 24.7388 29.0397 23.7806 28.6403 23.7794C28.3931 23.7788 28.3203 23.7097 28.3862 23.5381C28.4906 23.2663 28.0319 22.6847 27.7131 22.6847C27.5975 22.6847 27.5028 22.5969 27.5025 22.4894C27.5022 22.2572 26.2031 21.405 25.91 21.4444C25.4397 21.5075 25.2875 21.4066 25.0709 20.8878C24.8306 20.3125 24.3319 20.1406 24.165 20.5753C24.1156 20.7044 23.9984 20.8097 23.9047 20.8097C23.8109 20.8097 23.7822 20.7325 23.84 20.6384C23.8984 20.5444 23.7978 20.2672 23.6169 20.0225C23.3247 19.6272 23.3141 19.5519 23.5228 19.3434C23.7309 19.135 23.7288 19.0928 23.4988 18.9641C23.1347 18.7606 23.3738 18.4659 23.9028 18.4659C24.2463 18.4659 24.4213 18.3397 24.6747 17.91C25.0884 17.2091 25.0975 16.9981 24.7053 17.2078C24.5416 17.2956 23.9903 17.3325 23.4809 17.2903C22.7003 17.225 22.5106 17.2609 22.2791 17.5166C22.0466 17.7734 21.94 17.7934 21.5894 17.6441C21.3612 17.5472 21.0634 17.3763 20.9281 17.2641C20.5881 16.9825 19.9441 16.9934 20.0534 17.2788C20.1328 17.4856 19.4806 17.6644 18.5406 17.6928C18.3809 17.6975 18.2166 17.8309 18.1753 17.9891C18.1141 18.2231 17.9909 18.2616 17.5094 18.1969C16.8569 18.1097 16.4472 18.4234 17.0184 18.5728C17.4066 18.6744 17.4441 18.8641 17.1025 18.995C16.7666 19.1241 16.9191 19.3119 17.6822 19.7097C18.16 19.9588 18.3619 19.9991 18.4466 19.8619C18.6003 19.6131 18.9181 19.8228 18.8109 20.1022C18.7447 20.2747 18.8634 20.31 19.3547 20.265C19.9509 20.2103 19.9884 20.2328 20.0891 20.7038C20.1472 20.9769 20.2634 21.2853 20.3469 21.3888C20.4303 21.4925 20.4575 21.6434 20.4075 21.7247C20.2847 21.9228 21.3475 22.8409 21.6997 22.8409C21.8537 22.8409 22.1356 23.0069 22.3263 23.21C22.5172 23.4128 23.3725 24.0984 24.2269 24.7334C26.065 26.0988 26.0944 26.1631 26.0956 28.7934C26.0966 30.3494 26.1369 30.6416 26.3822 30.8638C26.7344 31.1822 27.9197 31.2031 28.9053 30.9081C29.5163 30.7256 29.6181 30.6319 29.7091 30.1684C29.9278 29.0525 29.9563 26.4619 29.7563 25.8797Z" fill="black"/>
<path d="M53.9091 21.2785C49.586 21.2785 45.2635 21.2785 40.9403 21.2785C40.9403 20.7219 40.9403 20.1653 40.9403 19.6085C40.9403 19.0519 40.9403 18.495 40.9403 17.9385C42.3481 17.9294 43.756 17.92 45.1638 17.911C47.4866 17.896 49.4172 17.8538 49.4538 17.8169C49.4903 17.7806 49.42 17.27 49.2969 16.6832C48.9281 14.9197 47.7972 13.4832 46.0631 12.576C45.3019 12.1775 45.0966 12.1438 43.4403 12.141C41.7388 12.1378 41.5872 12.1644 40.585 12.6391C38.0516 13.8394 36.7247 16.2856 36.7047 19.7941C36.6941 21.6441 36.9956 23.0894 37.6719 24.4285C39.1316 27.321 42.4825 28.7835 45.4941 27.8435C46.8028 27.4353 47.9128 26.5694 48.6125 25.4125C48.8003 25.1022 48.9878 24.7919 49.1756 24.4816C49.8931 24.4672 50.6106 24.4525 51.3285 24.4381C52.046 24.4235 52.7635 24.4088 53.4813 24.3944C53.4472 24.565 53.4131 24.736 53.3788 24.9069C53.221 25.6991 52.46 27.1991 51.7044 28.2088C49.9316 30.5785 47.175 31.7872 43.5185 31.7991C40.8697 31.8081 39.0031 31.2844 36.9528 29.9578C36.6675 29.7731 36.3819 29.5882 36.0966 29.4035C34.341 27.4225 33.3238 25.7107 32.8935 24.0135C32.0188 20.561 32.3356 16.5985 33.7119 13.7785C34.5469 12.0672 36.2063 10.4378 37.9716 9.59503C39.7513 8.74534 41.38 8.3944 43.4403 8.41721C49.6488 8.48533 53.5272 12.5916 53.8272 19.4135C53.8544 20.0353 53.8819 20.6566 53.9091 21.2785ZM34.456 13.1535C34.4131 13.1535 34.3778 13.1888 34.3778 13.2316C34.3778 13.2744 34.4131 13.3097 34.456 13.3097C34.4988 13.3097 34.5341 13.2744 34.5341 13.2316C34.5341 13.1888 34.4988 13.1535 34.456 13.1535ZM48.8466 10.0591C47.6594 9.25033 45.2285 8.62221 43.2878 8.62221C40.5819 8.62221 37.8372 9.61408 36.105 11.2175C35.585 11.6991 35.1591 12.156 35.1591 12.2328C35.1591 12.5113 35.6285 12.3622 36.1303 11.9244C36.7238 11.4069 37.2763 11.1944 37.421 11.4281C37.6403 11.7831 38.2722 11.5985 38.5275 11.1041C38.8747 10.4328 38.5938 10.1422 38.0716 10.6325C37.7363 10.9478 37.6888 10.9563 37.5972 10.7175C37.4788 10.4094 37.4488 10.4478 38.0519 10.1416C38.6981 9.81346 39.9369 9.63877 40.0719 9.85721C40.1297 9.95127 40.341 10.0285 40.5406 10.0285C40.8894 10.0285 41.1625 10.4541 41.1094 10.915C41.081 11.1622 41.3631 11.3228 41.4835 11.1282C41.5456 11.0275 41.6853 11.0381 41.8772 11.1581C42.0853 11.2881 42.1278 11.4 42.0185 11.5316C41.7772 11.8222 42.0925 11.9266 42.7663 11.7788C43.3088 11.66 44.6972 11.8628 46.2528 12.2885C46.6103 12.3863 46.62 12.3763 46.37 12.1713C46.0085 11.875 46.0244 11.7991 46.4728 11.6869C46.745 11.6182 46.8275 11.5113 46.7722 11.2994C46.7097 11.0606 46.7719 11.0144 47.1038 11.051C47.3947 11.0825 47.6425 10.9557 47.9672 10.6082C48.401 10.1441 48.4372 10.1338 48.7175 10.3869C49.021 10.6619 49.3785 10.7428 49.3769 10.5363C49.3763 10.4719 49.1375 10.2569 48.8466 10.0591ZM50.5572 28.1544C50.4388 27.9403 50.2478 27.7578 50.1335 27.7488C50.0185 27.7397 49.7644 27.7216 49.5685 27.7085C49.0978 27.6772 48.961 27.2775 49.2944 26.9094C49.4413 26.7469 49.5369 26.4856 49.5066 26.3291C49.4131 25.8444 48.8738 26.0035 48.4388 26.6435C47.6869 27.751 45.206 28.5863 43.206 28.406C41.6285 28.2638 41.4135 28.2191 40.5763 27.856C40.1169 27.6569 39.6725 27.5663 39.4416 27.6244C39.2322 27.6766 38.9744 27.6506 38.8678 27.5663C38.7619 27.4819 38.2322 27.3647 37.6913 27.306C37.1503 27.2469 36.3885 27.0619 35.9985 26.895C35.2469 26.5728 34.5341 26.495 34.5341 26.7353C34.5341 26.8147 34.7803 27.2019 35.081 27.596C35.3816 27.99 35.6278 28.3813 35.6278 28.4653C35.6278 28.5494 35.8925 28.7853 36.216 28.9894C36.5397 29.1938 36.9047 29.4819 37.0272 29.6297C37.3363 30.0019 39.1435 30.8916 40.1685 31.1756C41.4841 31.5406 43.2097 31.6291 45.0866 31.4272C47.0572 31.215 47.9572 30.9044 49.1444 30.0278C49.6091 29.6844 50.0591 29.4035 50.1435 29.4035C50.2922 29.4035 50.79 28.7944 50.7788 28.6266C50.7756 28.581 50.676 28.3688 50.5572 28.1544Z" fill="black"/>
<path d="M67.6591 27.5284C68.6587 26.8884 69.7069 25.7984 70.0634 25.0284C70.3378 24.4356 70.3978 23.9513 70.4444 21.9441C70.4625 21.1506 70.4809 20.3569 70.4997 19.5631C69.935 19.7428 69.3703 19.9225 68.8059 20.1022C67.8744 20.3984 66.3097 20.8269 65.3287 21.0544C63.1906 21.5497 62.4303 21.8584 61.6419 22.5509C60.0006 23.9919 60.1062 26.7284 61.8387 27.6456C62.0603 27.7628 62.2812 27.88 62.5028 27.9972C62.2787 28.1325 61.9266 28.025 61.5756 27.8463C60.7778 27.4391 60.1019 26.1947 60.25 25.4053C60.3047 25.1147 60.2725 24.8641 60.1731 24.8025C60.0775 24.7438 60.0028 24.8062 60.0028 24.9459C60.0028 25.2037 59.6481 25.0066 58.5634 24.145C58.33 23.9597 58.0506 23.7788 57.9422 23.7425C57.8259 23.7038 57.7606 23.4697 57.7831 23.1731C57.8209 22.6778 57.8125 22.6709 57.2766 22.7716C56.7869 22.8634 56.6981 22.9628 56.3984 23.7559C56.1141 24.5091 56.08 24.8316 56.1656 25.9659C56.2887 27.5947 56.7747 28.7031 57.68 29.42C58.2269 29.8528 58.3269 30.1006 57.9325 30.045C57.8934 30.0397 57.8544 30.0338 57.8153 30.0284C56.4166 28.8156 55.6415 26.6962 55.8359 24.6147C56.0753 22.0522 57.8222 20.1369 60.8791 19.085C61.3653 18.9178 62.9669 18.5309 64.4378 18.2256C69.7444 17.1234 70.589 16.6038 70.4394 14.5328C70.3828 13.75 70.2969 13.5397 69.8406 13.0694C69.1462 12.3528 68.1337 12.0597 66.3519 12.0597C64.5687 12.0597 63.3397 12.3953 62.505 13.11C61.7262 13.7762 61.4578 14.2744 61.3209 15.3056C61.2859 15.5703 61.2506 15.8353 61.2153 16.1003C60.4797 16.0906 59.7437 16.0816 59.0075 16.0719C58.2719 16.0628 57.5356 16.0534 56.7997 16.0441C56.8147 15.8878 56.8291 15.7316 56.8441 15.5753C57.0166 13.7506 57.9231 11.7884 59.0697 10.7572C60.8566 9.15094 63.07 8.42375 66.1747 8.42438C69.7106 8.42469 71.7606 9.10688 73.3347 10.8069C73.8609 11.3753 74.3356 12.0875 74.5572 12.6403C74.9125 13.5259 74.9203 13.6688 74.9612 19.8331C74.9753 21.9297 74.9891 24.0256 75.0028 26.1222C75.0028 27.8928 75.0028 29.6641 75.0028 31.4347C74.5862 31.4347 74.1694 31.4347 73.7528 31.4347C73.3362 31.4347 72.9194 31.4347 72.5028 31.4347C72.6275 31.2697 73.0594 31.24 73.5428 31.2625C74.1416 31.2903 74.4644 31.2366 74.5537 31.0953C74.6262 30.9813 74.6856 29.2706 74.6856 27.2941C74.6859 23.5009 74.6 22.9638 73.9784 22.8734C73.8062 22.8484 73.5969 22.6772 73.5137 22.4931C73.2915 22.0019 72.3756 21.5284 72.0959 21.7606C71.9759 21.86 71.8778 22.03 71.8778 22.1378C71.8778 22.2456 71.77 22.4231 71.6387 22.5325C71.4412 22.6966 71.3634 22.6819 71.1937 22.4497C70.9187 22.0741 70.7812 22.3184 70.7072 23.3147C70.6297 24.3525 70.3694 25.1178 69.8187 25.9237C69.3316 26.6369 67.9978 27.7444 67.7878 27.6103C67.7447 27.5831 67.7019 27.5556 67.6591 27.5284Z" fill="black"/>
<path d="M29.8631 5.88094C29.9291 6.1425 29.9691 8.04407 29.9525 10.1066C29.9234 13.6678 29.9034 13.8972 29.5566 14.6678C29.1584 15.5513 27.5531 17.2159 27.0994 17.2159C26.8478 17.2159 26.8484 17.195 27.1122 16.9034C27.2678 16.7316 27.4847 16.5909 27.5947 16.5909C27.7047 16.5909 27.8387 16.4503 27.8934 16.2784C27.9481 16.1063 28.1284 15.8931 28.2947 15.8041C28.4606 15.715 28.5966 15.5747 28.5966 15.4919C28.5966 15.27 28.1931 15.3084 27.9934 15.5488C27.8919 15.6716 27.6291 15.7281 27.3516 15.6875C26.78 15.6038 26.2181 14.8031 26.3575 14.2713C26.4187 14.0369 26.3575 13.8534 26.1728 13.7184C25.9234 13.5359 25.8947 13.17 25.8794 9.97876C25.8737 8.79938 25.8678 7.62032 25.8622 6.44125C25.6916 6.27094 25.5212 6.10032 25.3509 5.93001C25.1803 5.76001 25.0103 5.58938 24.8397 5.41907C20.7391 5.41907 16.6391 5.41907 12.5384 5.41907C8.43812 5.41907 4.33781 5.41907 0.237183 5.41907C0.237183 4.71594 0.237183 4.01282 0.237183 3.30969C0.237183 2.60657 0.237183 1.90344 0.237183 1.20032C4.29968 1.21375 8.36218 1.22751 12.4247 1.24094C19.1278 1.26344 24.8934 1.32438 25.2372 1.3772C26.1459 1.51626 27.0953 2.00469 27.9491 2.77251C28.6928 3.44126 29.6325 4.96719 29.8631 5.88094Z" fill="black"/>
<path d="M92.6591 26.591C92.7944 26.8331 92.7066 26.9013 92.5509 26.8985C91.995 26.8885 91.7003 26.4888 90.7125 24.4035C89.8462 22.5747 89.7719 22.5091 88.7987 22.711C88.3506 22.8041 87.8594 22.8222 87.705 22.7522C87.409 22.6172 87.2969 22.5863 86.8097 22.5022C86.5387 22.4556 86.5022 22.5616 86.4581 23.505C86.4419 23.8566 86.4256 24.2081 86.4091 24.5597C86.0234 23.1288 85.8962 21.8241 85.8547 20.4581C85.8309 19.6897 85.8075 18.9219 85.7841 18.1535C86.5394 14.4935 87.32 12.8588 89.1072 11.1978C90.3362 10.0553 92.1866 9.07283 93.8309 8.69002C95.4016 8.32408 98.0331 8.35783 99.5809 8.76283C104.307 10.0003 106.798 13.6094 107.279 19.9113C107.314 20.3672 107.349 20.8225 107.384 21.2785C105.216 21.2785 103.048 21.2785 100.881 21.2785C98.7128 21.2785 96.5456 21.2785 94.3778 21.2785C94.3778 20.7053 94.3778 20.1328 94.3778 19.5597C94.3778 18.9866 94.3778 18.4141 94.3778 17.841C95.7966 17.841 97.2156 17.841 98.6344 17.841C100.053 17.841 101.472 17.841 102.891 17.841C102.811 17.4866 102.732 17.1325 102.652 16.7781C102.223 14.8756 101.022 13.3847 99.2487 12.5534C98.4572 12.1822 98.1778 12.1378 96.6434 12.1378C95.1091 12.1378 94.8297 12.1822 94.0381 12.5534C92.3075 13.3647 91.1131 14.8106 90.3909 16.9697C90.0466 17.9994 89.9753 18.4988 89.9669 19.9385C89.9587 21.406 90.0203 21.8628 90.3728 22.9438C90.7813 24.1963 91.7712 25.8969 92.3597 26.3569C92.4594 26.4347 92.5594 26.5128 92.6591 26.591ZM94.0819 10.8097C93.9237 10.8097 93.7078 11.2853 93.8169 11.3947C93.8563 11.4338 93.9631 11.4197 94.0547 11.3631C94.2566 11.2385 94.2775 10.8097 94.0819 10.8097ZM101.735 9.80814C100.955 9.39439 99.5203 8.92501 99.3525 9.02845C99.2728 9.07751 99.1087 9.03533 98.9872 8.9347C98.8656 8.83408 98.69 8.79877 98.5966 8.85658C98.5031 8.91439 98.3237 8.87627 98.1981 8.77189C97.9541 8.5697 94.7622 8.61907 94.42 8.83032C94.2906 8.91032 94.3012 9.05251 94.4587 9.35595C94.5772 9.58439 94.6381 9.83001 94.5941 9.90158C94.3791 10.2494 94.74 10.6106 95.5122 10.821C95.9625 10.9435 96.3487 11.0263 96.37 11.005C96.4316 10.9435 96.5244 10.6694 96.5459 10.4859C96.5566 10.3941 96.7234 10.3391 96.9169 10.3641C97.1103 10.3891 97.3562 10.3547 97.4637 10.2878C97.7359 10.1184 97.7084 9.71595 97.4247 9.71595C97.0956 9.71595 97.1328 9.44533 97.4875 9.25533C97.8937 9.03783 98.6631 9.32158 98.9806 9.80595C99.2728 10.2522 99.7369 10.2944 100.122 9.9097C100.425 9.60689 100.82 9.6297 101.356 9.98095C101.548 10.1072 101.833 10.1838 101.987 10.1506C102.206 10.1041 102.15 10.0278 101.735 9.80814Z" fill="black"/>
<path d="M120.472 17.8409C125.115 18.9972 126.983 20.0587 127.876 22.0484C128.495 23.4278 128.676 24.6691 128.454 26.0131C127.846 29.6941 124.625 31.76 119.483 31.7675C114.01 31.775 111.073 30.1787 109.46 26.3197C109.433 26.2537 109.405 26.1881 109.378 26.1222C109.266 25.3378 109.154 24.5537 109.043 23.7697C109.788 23.7844 110.532 23.7987 111.277 23.8131C112.021 23.8278 112.766 23.8422 113.51 23.8566C113.549 24.0841 113.588 24.3116 113.627 24.5391C114.047 27.005 115.938 28.2472 119.222 28.215C121.277 28.1947 122.346 27.8328 123.233 26.8575C123.801 26.2334 123.831 26.1478 123.831 25.1562C123.831 24.1159 123.828 24.1097 123.095 23.4072C122.233 22.5816 121.218 22.2147 117.659 21.4444C113.97 20.6459 112.522 20.0556 111.329 18.8625C110.458 17.9919 110.055 17.19 109.853 15.9297C109.18 11.7166 112.822 8.43625 118.147 8.46C118.609 8.46187 119.072 8.46375 119.534 8.46594C116.099 8.76719 115.194 8.94032 113.831 9.55626C112.329 10.235 111.397 11.0772 110.718 12.3706C110.216 13.3247 110.137 13.6038 110.212 14.1481C110.261 14.5034 110.221 15.02 110.123 15.2962C109.97 15.7244 109.987 15.8453 110.232 16.1166C110.742 16.6797 111.08 16.5284 111.268 15.6534C111.359 15.2238 111.486 14.8722 111.549 14.8722C111.695 14.8722 112.19 15.9025 112.19 16.2056C112.19 16.5609 112.596 16.4759 112.866 16.0641C113.122 15.6728 113.799 15.4497 114.03 15.6803C114.108 15.7584 114.162 15.3966 114.155 14.8369C114.14 13.5119 114.503 12.9084 115.678 12.3081C116.38 11.9491 116.84 11.8359 117.835 11.7781C120.625 11.6166 122.545 12.575 123.274 14.4944C123.371 14.7506 123.468 15.0066 123.566 15.2628C124.223 15.2628 124.88 15.2628 125.538 15.2628C126.195 15.2628 126.852 15.2628 127.509 15.2628C127.428 14.9766 127.345 14.6897 127.263 14.4034C126.84 12.9247 126.146 11.6803 125.308 10.8966C124.399 10.0456 122.693 9.2075 121.331 8.94218C120.815 8.84156 120.235 8.69344 120.042 8.61281C119.925 8.56375 119.808 8.51469 119.69 8.46594C123.131 8.91906 125.037 9.83782 126.34 11.6706C126.838 12.3716 127.549 14.2313 127.683 15.1847C127.701 15.3147 127.719 15.4453 127.737 15.5753C127.002 15.5897 126.266 15.6041 125.53 15.6188C124.794 15.6331 124.059 15.6475 123.323 15.6616C123.267 15.4388 123.211 15.2163 123.155 14.9938C122.674 13.0897 120.858 11.9947 118.188 11.9981C117.1 11.9994 116.791 12.0647 116.001 12.4594C114.852 13.0334 114.378 13.6928 114.378 14.7163C114.378 15.2847 114.467 15.5475 114.769 15.8741C115.353 16.5037 116.651 17.0313 118.668 17.4588C119.27 17.5863 119.871 17.7134 120.472 17.8409Z" fill="black"/>
<path d="M131.253 2.21594C132.813 2.15875 134.374 2.10157 135.934 2.04407C135.948 3.20532 135.962 4.36719 135.976 5.52844C135.99 6.69 136.004 7.85156 136.018 9.01281C136.696 9.02719 137.372 9.04156 138.05 9.05594C138.727 9.07031 139.404 9.08469 140.081 9.09906C140.063 9.72125 140.046 10.3431 140.029 10.9653C140.012 11.5878 139.994 12.2094 139.977 12.8319C139.317 12.8463 138.657 12.8609 137.997 12.8756C137.338 12.89 136.678 12.9047 136.018 12.9191C136.032 15.1194 136.044 17.3203 136.057 19.5206C136.071 21.7209 136.083 23.9219 136.097 26.1222C136.091 26.1613 136.086 26.2003 136.08 26.2394C136.071 26.3038 135.99 26.2159 135.9 26.0441C135.802 25.8553 135.752 24.7016 135.773 23.1312C135.796 21.4497 135.751 20.4953 135.645 20.4297C135.539 20.3641 135.46 20.7194 135.421 21.4444C135.401 21.8163 135.381 22.1881 135.361 22.56C135.184 22.4697 135.007 22.3787 134.83 22.2881C134.538 22.1384 134.245 21.9381 134.179 21.8425C134.099 21.7278 133.933 21.8209 133.691 22.1156C133.195 22.7184 132.732 22.5784 132.584 21.7809C132.524 21.4616 132.341 21.0747 132.177 20.9209C132.012 20.7669 131.878 20.4725 131.878 20.2659C131.878 20.0594 131.809 19.8481 131.725 19.7956C131.627 19.7353 131.542 21.0069 131.409 26.9034C131.357 18.6741 131.305 10.4453 131.253 2.21594Z" fill="black"/>
<path d="M62.5028 27.9972C64.1828 28.4425 65.6766 28.3606 67.1513 27.7416C67.3203 27.6703 67.49 27.5997 67.6591 27.5284C67.7019 27.5556 67.7447 27.5831 67.7878 27.6103C67.9978 27.7444 69.3316 26.6369 69.8188 25.9238C70.3694 25.1178 70.6297 24.3525 70.7072 23.3147C70.7813 22.3184 70.9187 22.0741 71.1937 22.4497C71.3634 22.6819 71.4412 22.6966 71.6387 22.5325C71.77 22.4231 71.8778 22.2456 71.8778 22.1378C71.8778 22.03 71.9759 21.86 72.0959 21.7606C72.3756 21.5284 73.2916 22.0019 73.5137 22.4931C73.5969 22.6772 73.8062 22.8484 73.9784 22.8734C74.6 22.9638 74.6859 23.5009 74.6856 27.2941C74.6856 29.2706 74.6262 30.9813 74.5537 31.0953C74.4644 31.2366 74.1416 31.2903 73.5428 31.2625C73.0594 31.24 72.6275 31.2697 72.5028 31.4347C71.8853 31.4347 71.2681 31.4347 70.6506 31.4347C70.6325 30.9788 70.6144 30.5234 70.5962 30.0675C70.5781 29.6116 70.56 29.1563 70.5419 28.7003C70.3997 28.8438 70.2578 28.9866 70.1159 29.13C69.9741 29.2734 69.8322 29.4163 69.6903 29.5597C67.3094 31.3678 65.8769 31.8156 62.8153 31.7091C60.6663 31.6344 59.7287 31.3725 58.4869 30.5003C58.2631 30.3431 58.0391 30.1856 57.8153 30.0284C57.8544 30.0338 57.8934 30.0397 57.9325 30.045C58.3269 30.1006 58.2269 29.8528 57.68 29.42C56.7747 28.7031 56.2888 27.5947 56.1656 25.9659C56.08 24.8316 56.1141 24.5091 56.3984 23.756C56.6981 22.9628 56.7869 22.8635 57.2766 22.7716C57.8125 22.671 57.8209 22.6778 57.7831 23.1731C57.7606 23.4697 57.8259 23.7038 57.9422 23.7425C58.0506 23.7788 58.33 23.9597 58.5634 24.145C59.6481 25.0066 60.0028 25.2038 60.0028 24.9459C60.0028 24.8063 60.0775 24.7438 60.1731 24.8025C60.2725 24.8641 60.3047 25.1147 60.25 25.4053C60.1019 26.1947 60.7778 27.4391 61.5756 27.8463C61.9266 28.025 62.2788 28.1325 62.5028 27.9972Z" fill="black"/>
<path d="M78.4403 26.1222C78.4403 23.2053 78.4403 20.2891 78.4403 17.3722C78.6441 12.7169 78.7784 11.3203 78.8953 11.0441C79.085 10.5956 79.1078 10.5863 79.4284 10.8284C79.54 10.9128 79.6515 10.9975 79.7631 11.0819C79.8753 10.9975 79.9872 10.9128 80.0994 10.8284C80.4169 10.5897 80.4538 10.5972 80.7609 10.9659C80.94 11.1809 81.0887 11.445 81.0916 11.5531C81.0956 11.7106 81.1587 11.7113 81.4091 11.5547C81.6962 11.3753 81.7216 11.3987 81.7216 11.8466C81.7216 12.3594 82.0631 12.7816 82.3397 12.6109C82.4322 12.5534 82.5028 12.645 82.5028 12.8225C82.5028 12.9944 82.5722 13.1781 82.6572 13.2303C82.7506 13.2884 82.8425 15.3731 82.8916 18.5522C82.9181 20.2944 82.9447 22.0363 82.9716 23.7784C83.0216 26.2813 83.0719 28.7838 83.1219 31.2866C82.3544 31.2725 81.5875 31.2581 80.82 31.2438C80.0528 31.2291 79.2856 31.2147 78.5184 31.2003C78.5053 30.3538 78.4925 29.5078 78.4794 28.6613C78.4662 27.8147 78.4534 26.9688 78.4403 26.1222Z" fill="black"/>
<path d="M92.6591 26.5909C92.8453 26.7188 93.0316 26.8466 93.2178 26.9747C94.3494 27.7522 95.4278 28.0544 97.1122 28.065C98.5303 28.0744 98.7597 28.0334 99.5956 27.6231C100.709 27.0766 101.546 26.2709 102.021 25.29C102.139 25.0466 102.257 24.8031 102.374 24.5597C103.138 24.5603 103.902 24.5612 104.665 24.5619C105.429 24.5625 106.192 24.5631 106.956 24.5638C106.824 24.9147 106.692 25.2656 106.559 25.6166C105.444 28.5775 102.908 30.7825 99.7641 31.5234C98.28 31.8734 95.4381 31.8672 93.9091 31.5106C90.2025 30.6466 87.8975 28.5106 86.4091 24.5597C86.4256 24.2081 86.4419 23.8566 86.4581 23.505C86.5022 22.5616 86.5387 22.4556 86.8097 22.5022C87.2969 22.5862 87.409 22.6172 87.705 22.7522C87.8594 22.8222 88.3506 22.8041 88.7987 22.7109C89.7719 22.5091 89.8462 22.5747 90.7125 24.4034C91.7003 26.4888 91.995 26.8884 92.5509 26.8984C92.7066 26.9013 92.7944 26.8331 92.6591 26.5909Z" fill="black"/>
<path d="M119.534 8.46594C119.586 8.46594 119.638 8.46594 119.69 8.46594C119.808 8.51469 119.925 8.56376 120.042 8.61282C120.235 8.69344 120.815 8.84156 121.331 8.94219C122.693 9.2075 124.399 10.0456 125.308 10.8966C126.146 11.6803 126.84 12.9247 127.263 14.4034C127.345 14.6897 127.428 14.9766 127.509 15.2628C126.852 15.2628 126.195 15.2628 125.538 15.2628C124.88 15.2628 124.223 15.2628 123.566 15.2628C123.468 15.0066 123.371 14.7506 123.274 14.4944C122.545 12.575 120.625 11.6166 117.835 11.7781C116.84 11.8359 116.38 11.9491 115.678 12.3081C114.503 12.9084 114.14 13.5119 114.155 14.8369C114.162 15.3966 114.108 15.7584 114.03 15.6803C113.799 15.4497 113.122 15.6728 112.866 16.0641C112.596 16.4759 112.19 16.5609 112.19 16.2056C112.19 15.9025 111.695 14.8722 111.549 14.8722C111.486 14.8722 111.359 15.2238 111.268 15.6534C111.08 16.5284 110.742 16.6797 110.232 16.1166C109.987 15.8453 109.97 15.7244 110.123 15.2963C110.221 15.02 110.261 14.5034 110.212 14.1481C110.137 13.6038 110.216 13.3247 110.718 12.3706C111.397 11.0772 112.329 10.235 113.831 9.55626C115.194 8.94032 116.099 8.76719 119.534 8.46594Z" fill="black"/>
<path d="M29.7562 25.8797C29.9562 26.4619 29.9278 29.0525 29.7091 30.1684C29.6181 30.6319 29.5162 30.7256 28.9053 30.9081C27.9197 31.2031 26.7344 31.1822 26.3822 30.8638C26.1369 30.6416 26.0966 30.3494 26.0956 28.7934C26.0944 26.1631 26.065 26.0987 24.2269 24.7334C23.3725 24.0984 22.5172 23.4128 22.3262 23.21C22.1356 23.0069 21.8537 22.8409 21.6997 22.8409C21.3475 22.8409 20.2847 21.9228 20.4075 21.7247C20.4575 21.6434 20.4303 21.4925 20.3469 21.3887C20.2634 21.2853 20.1472 20.9769 20.0891 20.7038C19.9884 20.2328 19.9509 20.2103 19.3547 20.265C18.8634 20.31 18.7447 20.2747 18.8109 20.1022C18.9181 19.8228 18.6003 19.6131 18.4466 19.8619C18.3619 19.9991 18.16 19.9588 17.6822 19.7097C16.9191 19.3119 16.7666 19.1241 17.1025 18.995C17.4441 18.8641 17.4066 18.6744 17.0184 18.5728C16.4472 18.4234 16.8569 18.1097 17.5094 18.1969C17.9909 18.2616 18.1141 18.2231 18.1753 17.9891C18.2166 17.8309 18.3809 17.6975 18.5406 17.6928C19.4806 17.6644 20.1328 17.4856 20.0534 17.2787C19.9441 16.9934 20.5881 16.9825 20.9281 17.2641C21.0634 17.3762 21.3612 17.5472 21.5894 17.6441C21.94 17.7934 22.0466 17.7734 22.2791 17.5166C22.5106 17.2609 22.7003 17.225 23.4809 17.2903C23.9903 17.3325 24.5416 17.2956 24.7053 17.2078C25.0975 16.9981 25.0884 17.2091 24.6747 17.91C24.4212 18.3397 24.2462 18.4659 23.9028 18.4659C23.3737 18.4659 23.1347 18.7606 23.4987 18.9641C23.7287 19.0928 23.7309 19.135 23.5228 19.3434C23.3141 19.5519 23.3247 19.6272 23.6169 20.0225C23.7978 20.2672 23.8984 20.5444 23.84 20.6384C23.7822 20.7325 23.8109 20.8097 23.9047 20.8097C23.9984 20.8097 24.1156 20.7044 24.165 20.5753C24.3319 20.1406 24.8306 20.3125 25.0709 20.8878C25.2875 21.4066 25.4397 21.5075 25.91 21.4444C26.2031 21.405 27.5022 22.2572 27.5025 22.4894C27.5028 22.5969 27.5975 22.6847 27.7131 22.6847C28.0319 22.6847 28.4906 23.2662 28.3862 23.5381C28.3203 23.7097 28.3931 23.7787 28.6403 23.7794C29.0397 23.7806 29.775 24.7387 29.6422 25.0847C29.5959 25.2053 29.6475 25.5631 29.7562 25.8797Z" fill="black"/>
<path d="M78.4403 17.3722C78.4403 11.6172 78.44 5.86156 78.44 0.106564C79.2213 0.0887511 80.0028 0.0709417 80.7841 0.0531292C81.5653 0.0353167 82.3466 0.0178125 83.1278 0C83.1278 3.20781 83.1278 6.41532 83.1278 9.62344C83.1278 12.8313 83.1278 16.0394 83.1278 19.2472C83.0756 20.7578 83.0237 22.2678 82.9716 23.7784C82.9447 22.0363 82.9181 20.2944 82.8916 18.5522C82.8425 15.3731 82.7506 13.2884 82.6572 13.2303C82.5722 13.1781 82.5028 12.9944 82.5028 12.8225C82.5028 12.645 82.4322 12.5534 82.3397 12.6109C82.0631 12.7816 81.7216 12.3594 81.7216 11.8466C81.7216 11.3987 81.6962 11.3753 81.4091 11.5547C81.1587 11.7113 81.0956 11.7106 81.0916 11.5531C81.0887 11.445 80.94 11.1809 80.7609 10.9659C80.4538 10.5972 80.4169 10.5897 80.0994 10.8284C79.9872 10.9128 79.8753 10.9975 79.7631 11.0819C79.6515 10.9975 79.54 10.9128 79.4284 10.8284C79.1078 10.5863 79.085 10.5956 78.8953 11.0441C78.7784 11.3203 78.6441 12.7169 78.4403 17.3722Z" fill="black"/>
<path d="M136.097 26.1222C136.707 27.1169 137.276 27.4069 138.797 27.4969C139.202 27.5209 139.607 27.545 140.012 27.5691C139.997 28.2003 139.983 28.8316 139.968 29.4628C139.954 30.0941 139.939 30.7253 139.925 31.3566C139.508 31.4009 139.091 31.4453 138.675 31.4894C137.148 31.6516 135.132 31.4197 134.099 30.9625C132.774 30.3766 132.037 29.4459 131.647 27.8672C131.567 27.5459 131.488 27.2247 131.409 26.9034C131.542 21.0069 131.627 19.7353 131.725 19.7956C131.809 19.8481 131.878 20.0594 131.878 20.2659C131.878 20.4725 132.012 20.7669 132.177 20.9209C132.341 21.0747 132.524 21.4616 132.584 21.7809C132.732 22.5784 133.195 22.7184 133.691 22.1156C133.933 21.8209 134.099 21.7278 134.179 21.8425C134.245 21.9381 134.538 22.1384 134.83 22.2881C135.007 22.3787 135.184 22.4697 135.361 22.56C135.381 22.1881 135.401 21.8162 135.421 21.4444C135.46 20.7194 135.539 20.3641 135.645 20.4297C135.751 20.4953 135.796 21.4497 135.773 23.1312C135.752 24.7016 135.802 25.8553 135.9 26.0441C135.99 26.2159 136.071 26.3037 136.08 26.2394C136.086 26.2003 136.091 26.1612 136.097 26.1222Z" fill="black"/>
<path d="M50.5572 28.1544C50.6759 28.3687 50.7756 28.5809 50.7787 28.6266C50.79 28.7944 50.2922 29.4034 50.1434 29.4034C50.0591 29.4034 49.6091 29.6844 49.1444 30.0278C47.9572 30.9044 47.0572 31.215 45.0866 31.4272C43.2097 31.6291 41.4841 31.5406 40.1684 31.1756C39.1434 30.8916 37.3362 30.0019 37.0272 29.6297C36.9047 29.4819 36.5397 29.1937 36.2159 28.9894C35.8925 28.7853 35.6278 28.5494 35.6278 28.4653C35.6278 28.3812 35.3816 27.99 35.0809 27.5959C34.7803 27.2019 34.5341 26.8147 34.5341 26.7353C34.5341 26.495 35.2469 26.5728 35.9984 26.895C36.3884 27.0619 37.1503 27.2469 37.6912 27.3059C38.2322 27.3647 38.7619 27.4819 38.8678 27.5662C38.9744 27.6506 39.2322 27.6766 39.4416 27.6244C39.6725 27.5663 40.1169 27.6569 40.5762 27.8559C41.4134 28.2191 41.6284 28.2638 43.2059 28.4059C45.2059 28.5863 47.6869 27.7509 48.4387 26.6434C48.8737 26.0034 49.4131 25.8444 49.5066 26.3291C49.5369 26.4856 49.4412 26.7469 49.2944 26.9094C48.9609 27.2775 49.0978 27.6772 49.5684 27.7084C49.7644 27.7216 50.0184 27.7397 50.1334 27.7487C50.2478 27.7578 50.4387 27.9403 50.5572 28.1544Z" fill="black"/>
<path d="M48.8466 10.0591C49.1375 10.2569 49.3762 10.4719 49.3769 10.5363C49.3784 10.7428 49.0209 10.6619 48.7175 10.3869C48.4372 10.1338 48.4009 10.1441 47.9672 10.6081C47.6425 10.9556 47.3947 11.0825 47.1037 11.0509C46.7719 11.0144 46.7097 11.0606 46.7722 11.2994C46.8275 11.5113 46.745 11.6181 46.4728 11.6869C46.0244 11.7991 46.0084 11.875 46.37 12.1713C46.62 12.3763 46.6103 12.3863 46.2528 12.2884C44.6972 11.8628 43.3087 11.66 42.7662 11.7788C42.0925 11.9266 41.7772 11.8222 42.0184 11.5316C42.1278 11.4 42.0853 11.2881 41.8772 11.1581C41.6853 11.0381 41.5456 11.0275 41.4834 11.1281C41.3631 11.3228 41.0809 11.1622 41.1094 10.915C41.1625 10.4541 40.8894 10.0284 40.5406 10.0284C40.3409 10.0284 40.1297 9.95125 40.0719 9.85719C39.9369 9.63875 38.6981 9.81344 38.0519 10.1416C37.4487 10.4478 37.4787 10.4094 37.5972 10.7175C37.6887 10.9563 37.7362 10.9478 38.0716 10.6325C38.5937 10.1422 38.8747 10.4328 38.5275 11.1041C38.2722 11.5984 37.6403 11.7831 37.4209 11.4281C37.2762 11.1944 36.7237 11.4069 36.1303 11.9244C35.6284 12.3622 35.1591 12.5113 35.1591 12.2328C35.1591 12.1559 35.585 11.6991 36.105 11.2175C37.8372 9.61407 40.5819 8.62219 43.2878 8.62219C45.2284 8.62219 47.6594 9.25031 48.8466 10.0591Z" fill="black"/>
<path d="M4.23593 28.6066C4.4578 31.0763 4.53343 30.9906 2.18843 30.9322C1.58999 30.9175 0.991558 30.9028 0.393433 30.8878C0.396245 30.5234 0.398745 30.1584 0.401558 29.7941C0.422808 26.9309 0.564055 26.0691 0.910305 26.6885C1.02531 26.8938 1.20937 26.9313 1.78187 26.8669C2.18124 26.8219 2.54593 26.8469 2.59281 26.9222C2.63937 26.9978 2.91093 27.0597 3.19624 27.0597C3.90343 27.0597 4.12687 27.3922 4.23593 28.6066Z" fill="black"/>
<path d="M101.735 9.80815C102.15 10.0278 102.206 10.1041 101.988 10.1506C101.833 10.1838 101.548 10.1072 101.356 9.98096C100.82 9.62971 100.425 9.60689 100.122 9.90971C99.7369 10.2944 99.2728 10.2522 98.9806 9.80596C98.6631 9.32158 97.8937 9.03783 97.4875 9.25533C97.1328 9.44533 97.0956 9.71596 97.4247 9.71596C97.7084 9.71596 97.7359 10.1185 97.4637 10.2878C97.3562 10.3547 97.1103 10.3891 96.9169 10.3641C96.7234 10.3391 96.5566 10.3941 96.5459 10.486C96.5244 10.6694 96.4316 10.9435 96.37 11.005C96.3487 11.0263 95.9625 10.9435 95.5122 10.821C94.74 10.6106 94.3791 10.2494 94.5941 9.90158C94.6381 9.83002 94.5772 9.58439 94.4587 9.35596C94.3012 9.05252 94.2906 8.91033 94.42 8.83033C94.7622 8.61908 97.9541 8.56971 98.1981 8.7719C98.3237 8.87627 98.5031 8.9144 98.5966 8.85658C98.69 8.79877 98.8656 8.83408 98.9872 8.93471C99.1087 9.03533 99.2728 9.07752 99.3525 9.02845C99.5203 8.92502 100.955 9.3944 101.735 9.80815Z" fill="black"/>
<path d="M5.67658 23.5831C5.81845 24.1263 5.83876 24.1019 5.19158 24.155C5.08033 24.1644 4.9397 24.2488 4.87908 24.3425C4.81814 24.4359 4.60876 24.5972 4.41376 24.7C3.97688 24.93 3.65876 24.7834 3.91751 24.4713C4.05876 24.3013 3.99002 24.1188 3.5972 23.6228C3.09533 22.9894 3.06032 22.5284 3.51376 22.5284C3.64532 22.5284 3.75282 22.6616 3.75282 22.8244C3.75282 23.1884 4.04595 23.3097 4.92595 23.3097C5.44095 23.3097 5.6222 23.3756 5.67658 23.5831Z" fill="black"/>
<path d="M2.89875 24.2516C3.10781 24.4253 3.09031 24.9341 2.86656 25.1794C2.72875 25.3303 2.26625 24.9044 2.21844 24.5822C2.15781 24.1741 2.56625 23.9756 2.89875 24.2516Z" fill="black"/>
<path d="M94.0819 10.8097C94.2775 10.8097 94.2566 11.2384 94.0547 11.3631C93.9631 11.4197 93.8563 11.4338 93.8169 11.3947C93.7078 11.2853 93.9238 10.8097 94.0819 10.8097Z" fill="black"/>
<path d="M34.4559 13.1534C34.4987 13.1534 34.5341 13.1888 34.5341 13.2316C34.5341 13.2744 34.4987 13.3097 34.4559 13.3097C34.4131 13.3097 34.3778 13.2744 34.3778 13.2316C34.3778 13.1888 34.4131 13.1534 34.4559 13.1534Z" fill="black"/>
</svg>
