<svg width="31" height="31" viewBox="0 0 31 31" fill="none" xmlns="http://www.w3.org/2000/svg">
<path d="M15.2656 25.0341C16.0206 25.0341 16.7763 25.0341 17.5312 25.0341C17.5312 25.8153 17.5312 26.5966 17.5312 27.3778C17.5312 28.1591 17.5312 28.9403 17.5312 29.7216C16.7763 29.7216 16.0206 29.7216 15.2656 29.7216C14.5106 29.7216 13.755 29.7216 13 29.7216C13 28.9403 13 28.1591 13 27.3778C13 26.5966 13 25.8153 13 25.0341C13.755 25.0341 14.5106 25.0341 15.2656 25.0341Z" fill="white"/>
<path d="M12.1616 0C20.2403 0 24.6316 0.0571873 25.2475 0.169687C25.7572 0.263125 26.5097 0.520625 26.9184 0.742188C27.9184 1.28375 29.145 2.61187 29.6597 3.71031C30.0788 4.605 30.0813 4.62969 30.1272 8.68594C30.1709 12.5644 30.1569 12.8072 29.8297 13.6809C29.3922 14.8506 28.4431 15.805 26.2212 17.31C25.3016 17.9331 24.5112 18.5044 24.465 18.5791C24.37 18.7328 24.8116 19.0859 26.7216 20.3844C28.4728 21.575 29.1472 22.2406 29.655 23.2806C30.06 24.1097 30.0772 24.2512 30.1313 27.2266C30.15 28.255 30.1688 29.2841 30.1875 30.3125C29.4534 30.3125 28.7197 30.3125 27.9856 30.3125C27.2519 30.3125 26.5181 30.3125 25.7841 30.3125C25.7841 29.7731 25.7841 29.2341 25.7841 28.695C25.7841 27.805 25.7406 26.6594 25.6872 26.1484C25.6547 25.8384 25.6222 25.5291 25.5897 25.2194C23.8481 23.9828 22.1062 22.7459 20.3647 21.5091C18.6228 20.2725 16.8809 19.0356 15.1394 17.7991C14.4478 18.2831 13.7559 18.7672 13.0641 19.2509C11.9228 20.0497 9.53688 21.7225 7.76188 22.9688C6.68625 23.7237 5.61063 24.4794 4.53469 25.2344C4.53469 26.0822 4.53469 26.9297 4.53469 27.7778C4.53438 28.6253 4.53406 29.4734 4.53406 30.3209C3.79188 30.3066 3.04969 30.2922 2.3075 30.2778C1.56531 30.2631 0.823126 30.2488 0.0809383 30.2344C0.0675008 27.4091 0.0537493 24.5831 0.0403118 21.7578C0.0268743 18.9325 0.0134375 16.1066 0 13.2812C0.755625 13.2812 1.51125 13.2812 2.26687 13.2812C3.0225 13.2812 3.77844 13.2812 4.53406 13.2812C4.53406 14.3231 4.53406 15.3644 4.53406 16.4062C4.53406 18.125 4.57312 19.5312 4.62125 19.5312C4.66937 19.5312 6.515 18.2672 8.72281 16.7222C10.9306 15.1772 12.9834 13.7931 13.2841 13.6462C14.0053 13.2941 15.4637 13.1947 16.3344 13.4384C16.7184 13.5459 17.7447 14.1172 18.6153 14.7075C19.4856 15.2981 20.2178 15.7812 20.2425 15.7812C20.3197 15.7812 25.0666 12.4778 25.3544 12.2241C25.5978 12.0094 25.6278 11.6347 25.6278 8.79188C25.6278 7.72844 25.6278 6.66469 25.6278 5.60094C25.4756 5.44875 25.3234 5.29656 25.1709 5.14438C25.0187 4.99188 24.8666 4.83969 24.7144 4.6875C20.5956 4.6875 16.4772 4.6875 12.3584 4.6875C8.24 4.6875 4.12156 4.6875 0.00281334 4.6875C0.00281334 3.90625 0.00281334 3.125 0.00281334 2.34375C0.00281334 1.5625 0.00281334 0.78125 0.00281334 0C4.05563 0 8.10843 0 12.1616 0ZM29.8631 4.915C29.6325 4.00125 28.6928 2.47531 27.9491 1.80656C27.0953 1.03875 26.1459 0.550315 25.2372 0.411253C24.8934 0.35844 19.1278 0.297502 12.4247 0.275002C8.36219 0.261564 4.29969 0.247812 0.237188 0.234375C0.237188 0.9375 0.237188 1.64062 0.237188 2.34375C0.237188 3.04688 0.237188 3.75 0.237188 4.45312C4.33781 4.45312 8.43813 4.45312 12.5384 4.45312C16.6391 4.45312 20.7391 4.45312 24.8397 4.45312C25.0103 4.62344 25.1803 4.79407 25.3509 4.96407C25.5213 5.13438 25.6916 5.305 25.8622 5.47531C25.8678 6.65437 25.8737 7.83344 25.8794 9.01281C25.8947 12.2041 25.9234 12.57 26.1728 12.7525C26.3575 12.8875 26.4187 13.0709 26.3575 13.3053C26.2181 13.8372 26.78 14.6378 27.3516 14.7216C27.6291 14.7622 27.8919 14.7056 27.9934 14.5828C28.1931 14.3425 28.5966 14.3041 28.5966 14.5259C28.5966 14.6088 28.4606 14.7491 28.2947 14.8381C28.1284 14.9272 27.9481 15.1403 27.8934 15.3125C27.8388 15.4844 27.7047 15.625 27.5947 15.625C27.4847 15.625 27.2678 15.7656 27.1122 15.9375C26.8484 16.2291 26.8478 16.25 27.0994 16.25C27.5531 16.25 29.1584 14.5853 29.5566 13.7019C29.9034 12.9313 29.9234 12.7019 29.9525 9.14062C29.9691 7.07812 29.9291 5.17656 29.8631 4.915ZM4.23594 27.6406C4.12687 26.4263 3.90344 26.0938 3.19625 26.0938C2.91094 26.0938 2.63937 26.0319 2.59281 25.9562C2.54594 25.8809 2.18125 25.8559 1.78187 25.9009C1.20937 25.9653 1.02531 25.9278 0.910311 25.7225C0.564061 25.1031 0.422814 25.965 0.401564 28.8281C0.398751 29.1925 0.396251 29.5575 0.393438 29.9219C0.991563 29.9369 1.59 29.9516 2.18843 29.9662C4.53343 30.0247 4.45781 30.1103 4.23594 27.6406ZM2.89875 23.2856C2.56625 23.0097 2.15781 23.2081 2.21844 23.6162C2.26625 23.9384 2.72875 24.3644 2.86656 24.2134C3.09031 23.9681 3.10781 23.4594 2.89875 23.2856ZM5.67657 22.6172C5.62219 22.4097 5.44094 22.3438 4.92594 22.3438C4.04594 22.3438 3.75281 22.2225 3.75281 21.8584C3.75281 21.6956 3.64531 21.5625 3.51375 21.5625C3.06031 21.5625 3.09532 22.0234 3.59719 22.6569C3.99001 23.1528 4.05875 23.3353 3.9175 23.5053C3.65875 23.8175 3.97687 23.9641 4.41375 23.7341C4.60875 23.6313 4.81813 23.47 4.87906 23.3766C4.93969 23.2828 5.08031 23.1984 5.19156 23.1891C5.83875 23.1359 5.81844 23.1603 5.67657 22.6172ZM29.7563 24.9137C29.6475 24.5972 29.5959 24.2394 29.6422 24.1187C29.775 23.7728 29.0397 22.8147 28.6403 22.8134C28.3931 22.8128 28.3203 22.7437 28.3862 22.5722C28.4906 22.3003 28.0319 21.7188 27.7131 21.7188C27.5975 21.7188 27.5028 21.6309 27.5025 21.5234C27.5022 21.2913 26.2031 20.4391 25.91 20.4784C25.4397 20.5416 25.2875 20.4406 25.0709 19.9219C24.8306 19.3466 24.3319 19.1747 24.165 19.6094C24.1156 19.7384 23.9984 19.8438 23.9047 19.8438C23.8109 19.8438 23.7822 19.7666 23.84 19.6725C23.8984 19.5784 23.7978 19.3012 23.6169 19.0566C23.3247 18.6612 23.3141 18.5859 23.5228 18.3775C23.7309 18.1691 23.7288 18.1269 23.4988 17.9981C23.1347 17.7947 23.3738 17.5 23.9028 17.5C24.2463 17.5 24.4213 17.3738 24.6747 16.9441C25.0884 16.2431 25.0975 16.0322 24.7053 16.2419C24.5416 16.3297 23.9903 16.3666 23.4809 16.3244C22.7003 16.2591 22.5106 16.295 22.2791 16.5506C22.0466 16.8075 21.94 16.8275 21.5894 16.6781C21.3612 16.5812 21.0634 16.4103 20.9281 16.2981C20.5881 16.0166 19.9441 16.0275 20.0534 16.3128C20.1328 16.5197 19.4806 16.6984 18.5406 16.7269C18.3809 16.7316 18.2166 16.865 18.1753 17.0231C18.1141 17.2572 17.9909 17.2956 17.5094 17.2309C16.8569 17.1438 16.4472 17.4575 17.0184 17.6069C17.4066 17.7084 17.4441 17.8981 17.1025 18.0291C16.7666 18.1581 16.9191 18.3459 17.6822 18.7438C18.16 18.9928 18.3619 19.0331 18.4466 18.8959C18.6003 18.6472 18.9181 18.8569 18.8109 19.1362C18.7447 19.3087 18.8634 19.3441 19.3547 19.2991C19.9509 19.2444 19.9884 19.2669 20.0891 19.7378C20.1472 20.0109 20.2634 20.3194 20.3469 20.4228C20.4303 20.5266 20.4575 20.6775 20.4075 20.7588C20.2847 20.9569 21.3475 21.875 21.6997 21.875C21.8537 21.875 22.1356 22.0409 22.3263 22.2441C22.5172 22.4469 23.3725 23.1325 24.2269 23.7675C26.065 25.1328 26.0944 25.1972 26.0956 27.8275C26.0966 29.3834 26.1369 29.6756 26.3822 29.8978C26.7344 30.2163 27.9197 30.2372 28.9053 29.9422C29.5163 29.7597 29.6181 29.6659 29.7091 29.2025C29.9278 28.0866 29.9563 25.4959 29.7563 24.9137Z" fill="white"/>
<path d="M29.8631 4.915C29.9291 5.17656 29.9691 7.07812 29.9525 9.14062C29.9234 12.7019 29.9034 12.9313 29.5566 13.7019C29.1584 14.5853 27.5531 16.25 27.0994 16.25C26.8478 16.25 26.8484 16.2291 27.1122 15.9375C27.2678 15.7656 27.4847 15.625 27.5947 15.625C27.7047 15.625 27.8387 15.4844 27.8934 15.3125C27.9481 15.1403 28.1284 14.9272 28.2947 14.8381C28.4606 14.7491 28.5966 14.6088 28.5966 14.5259C28.5966 14.3041 28.1931 14.3425 27.9934 14.5828C27.8919 14.7056 27.6291 14.7622 27.3516 14.7216C26.78 14.6378 26.2181 13.8372 26.3575 13.3053C26.4187 13.0709 26.3575 12.8875 26.1728 12.7525C25.9234 12.57 25.8947 12.2041 25.8794 9.01281C25.8737 7.83344 25.8678 6.65437 25.8622 5.47531C25.6916 5.305 25.5212 5.13438 25.3509 4.96407C25.1803 4.79407 25.0103 4.62344 24.8397 4.45312C20.7391 4.45312 16.6391 4.45312 12.5384 4.45312C8.43812 4.45312 4.33781 4.45312 0.237183 4.45312C0.237183 3.75 0.237183 3.04688 0.237183 2.34375C0.237183 1.64062 0.237183 0.9375 0.237183 0.234375C4.29968 0.247813 8.36218 0.261564 12.4247 0.275002C19.1278 0.297502 24.8934 0.35844 25.2372 0.411253C26.1459 0.550315 27.0953 1.03875 27.9491 1.80656C28.6928 2.47531 29.6325 4.00125 29.8631 4.915Z" fill="white"/>
<path d="M29.7562 24.9137C29.9562 25.4959 29.9278 28.0866 29.7091 29.2025C29.6181 29.6659 29.5162 29.7597 28.9053 29.9422C27.9197 30.2372 26.7344 30.2162 26.3822 29.8978C26.1369 29.6756 26.0966 29.3834 26.0956 27.8275C26.0944 25.1972 26.065 25.1328 24.2269 23.7675C23.3725 23.1325 22.5172 22.4469 22.3262 22.2441C22.1356 22.0409 21.8537 21.875 21.6997 21.875C21.3475 21.875 20.2847 20.9569 20.4075 20.7587C20.4575 20.6775 20.4303 20.5266 20.3469 20.4228C20.2634 20.3194 20.1472 20.0109 20.0891 19.7378C19.9884 19.2669 19.9509 19.2444 19.3547 19.2991C18.8634 19.3441 18.7447 19.3087 18.8109 19.1362C18.9181 18.8569 18.6003 18.6472 18.4466 18.8959C18.3619 19.0331 18.16 18.9928 17.6822 18.7437C16.9191 18.3459 16.7666 18.1581 17.1025 18.0291C17.4441 17.8981 17.4066 17.7084 17.0184 17.6069C16.4472 17.4575 16.8569 17.1437 17.5094 17.2309C17.9909 17.2956 18.1141 17.2572 18.1753 17.0231C18.2166 16.865 18.3809 16.7316 18.5406 16.7269C19.4806 16.6984 20.1328 16.5197 20.0534 16.3128C19.9441 16.0275 20.5881 16.0166 20.9281 16.2981C21.0634 16.4103 21.3612 16.5812 21.5894 16.6781C21.94 16.8275 22.0466 16.8075 22.2791 16.5506C22.5106 16.295 22.7003 16.2591 23.4809 16.3244C23.9903 16.3666 24.5416 16.3297 24.7053 16.2419C25.0975 16.0322 25.0884 16.2431 24.6747 16.9441C24.4212 17.3737 24.2462 17.5 23.9028 17.5C23.3737 17.5 23.1347 17.7947 23.4987 17.9981C23.7287 18.1269 23.7309 18.1691 23.5228 18.3775C23.3141 18.5859 23.3247 18.6612 23.6169 19.0566C23.7978 19.3012 23.8984 19.5784 23.84 19.6725C23.7822 19.7666 23.8109 19.8437 23.9047 19.8437C23.9984 19.8437 24.1156 19.7384 24.165 19.6094C24.3319 19.1747 24.8306 19.3466 25.0709 19.9219C25.2875 20.4406 25.4397 20.5416 25.91 20.4784C26.2031 20.4391 27.5022 21.2912 27.5025 21.5234C27.5028 21.6309 27.5975 21.7187 27.7131 21.7187C28.0319 21.7187 28.4906 22.3003 28.3862 22.5722C28.3203 22.7437 28.3931 22.8128 28.6403 22.8134C29.0397 22.8147 29.775 23.7728 29.6422 24.1187C29.5959 24.2394 29.6475 24.5972 29.7562 24.9137Z" fill="white"/>
<path d="M4.23593 27.6406C4.4578 30.1103 4.53343 30.0247 2.18843 29.9663C1.58999 29.9516 0.991558 29.9369 0.393433 29.9219C0.396245 29.5575 0.398745 29.1925 0.401558 28.8281C0.422808 25.965 0.564055 25.1031 0.910305 25.7225C1.02531 25.9278 1.20937 25.9653 1.78187 25.9009C2.18124 25.8559 2.54593 25.8809 2.59281 25.9563C2.63937 26.0319 2.91093 26.0938 3.19624 26.0938C3.90343 26.0938 4.12687 26.4263 4.23593 27.6406Z" fill="white"/>
<path d="M5.67658 22.6172C5.81845 23.1603 5.83876 23.1359 5.19158 23.1891C5.08033 23.1984 4.9397 23.2828 4.87908 23.3766C4.81814 23.47 4.60876 23.6313 4.41376 23.7341C3.97688 23.9641 3.65876 23.8175 3.91751 23.5053C4.05876 23.3353 3.99002 23.1528 3.5972 22.6569C3.09533 22.0234 3.06032 21.5625 3.51376 21.5625C3.64532 21.5625 3.75282 21.6956 3.75282 21.8584C3.75282 22.2225 4.04595 22.3438 4.92595 22.3438C5.44095 22.3438 5.6222 22.4097 5.67658 22.6172Z" fill="white"/>
<path d="M2.89875 23.2856C3.10781 23.4594 3.09031 23.9681 2.86656 24.2134C2.72875 24.3644 2.26625 23.9384 2.21844 23.6162C2.15781 23.2081 2.56625 23.0097 2.89875 23.2856Z" fill="white"/>
</svg>
